<?xml version="1.0" encoding="utf-8"?>
<!-- Generator: Adobe Illustrator 19.0.0, SVG Export Plug-In . SVG Version: 6.00 Build 0)  -->
<svg version="1.1" id="Layer_1" xmlns="http://www.w3.org/2000/svg" xmlns:xlink="http://www.w3.org/1999/xlink" x="0px" y="0px"
	 width="399px" height="350.8px" viewBox="0 0 399 350.8" style="enable-background:new 0 0 399 350.8;" xml:space="preserve">
<style type="text/css">
	.st0{fill:#3E479C;}
	.st1{fill:#3E459C;}
</style>
<g>
	<g>
		<path class="st0" d="M399,316.4h-75.5c3-2.1,3-7.8-1.2-9.6c-2.8-1.2-5.8-0.2-8.4,0.8c-4.2,1.6-8.3,2.7-12.8,3.1
			c-9.4,0.8-18.8-0.9-27.9-3.1c-16.8-4.1-33.9-10.1-51.3-6.3c-6.9,1.5-14,4.7-18.8,10c-1.3,1.5-2.4,3.2-3.1,5.1h-0.7
			c-0.1-0.2-0.1-0.3-0.2-0.5c-2.9-6.5-9.9-10.6-16.3-13c-16.4-6.1-34-1.3-50.2,2.9c-9,2.4-18,4.7-27.3,5c-4.5,0.2-9.1-0.1-13.5-1.2
			c-3.7-0.9-7.3-3-11.1-3.4c-3.2-0.3-6.7,1.1-7.3,4.7c-0.3,2.1,0.7,4.3,2.4,5.4H0v3.4h185.5c-1.3,1.3-2,3.2-1.6,5.5
			c0.8,4.9,6.9,7.2,11.2,5.1c2.3-1.1,3.8-3,4.6-5.3c0.3,0.9,0.8,1.8,1.5,2.7c3.4,4.4,11.2,4.6,13.8-0.9c1.3-2.8,0.5-5.5-1.2-7.2H399
			V316.4z M214.6,307.5c10.8-5.1,23.5-4.5,35-2.2c12.2,2.5,24,6.7,36.4,8.4c5.8,0.8,11.7,1,17.5,0.3c2.8-0.4,5.7-0.9,8.4-1.9
			c1.3-0.4,2.6-1,4-1.5c0.5-0.2,1.1-0.3,1.6-0.5c-1.5,1.7-1.4,4.7,0.7,6.2H203.8C206,312.3,210.7,309.4,214.6,307.5z M81.9,310.2
			c0.5,0.1,1,0.3,1.5,0.5c1.1,0.4,2.2,0.9,3.4,1.3c2.7,0.9,5.5,1.6,8.4,2c6,0.9,12.1,0.6,18.2-0.2c12.4-1.7,24.2-5.9,36.4-8.4
			c11.5-2.3,24.1-3,35,2.2c3.9,1.8,8.6,4.8,10.8,8.9H81C82.9,315,83.2,312,81.9,310.2z M192.9,327.4c-1.3,0.4-2.9,0.2-4-0.6
			c-2.8-2-0.7-7.8,2.8-4.6c1.7,1.5,4.1-0.8,2.7-2.4h2.3c0,0.2,0.1,0.3,0.1,0.5C196.9,323,195.8,326.5,192.9,327.4z M207.5,322.2
			c3.5-3.2,5.6,2.6,2.8,4.6c-1,0.7-2.3,0.9-3.5,0.7c-3.1-0.5-4.5-3.9-4.4-6.7c0-0.3,0.1-0.7,0.1-1h2.2
			C203.4,321.3,205.9,323.7,207.5,322.2z"/>
		<path class="st0" d="M206.1,337.1c-1.8-1-3.3-2.2-4.5-3.8c-0.1-0.9-1-1.7-2-1.6c-1,0-1.9,0.7-2,1.6c-1.2,1.6-2.8,2.8-4.5,3.8
			c-1,0.6-1.2,2-0.4,2.8c2.3,2.3,4.4,5,5.1,8.2c0,0.3-0.1,0.6-0.1,0.8c-0.2,1.3,0.9,1.9,2,1.7c1,0.2,2.1-0.4,2-1.7
			c0-0.3-0.1-0.6-0.1-0.8c0.7-3.2,2.8-5.9,5.1-8.2C207.3,339.2,207.1,337.7,206.1,337.1z M199.6,343.1c-0.8-1.4-1.7-2.8-2.8-4
			c1-0.7,2-1.6,2.8-2.5c0.9,0.9,1.8,1.8,2.8,2.5C201.3,340.3,200.4,341.6,199.6,343.1z"/>
	</g>
	<g>
		<path class="st1" d="M399,189.6h-75.6c3-2.1,3-7.8-1.2-9.6c-0.2-0.1-0.5-0.2-0.8-0.2c6.2-4.2,10.4-11.1,9.6-19
			c-1.1-9.8-10.6-17.1-20.3-13.4c-9.1,3.5-10.5,17.4-1.4,21.9c1.6,0.8,3-1.6,1.4-2.4c-7.6-3.7-5.8-15.2,2.1-17.3
			c9.8-2.6,17,6.9,15.4,16c-1.7,9.7-11.4,15.4-20.6,16.1c-9.2,0.8-18.8-2.3-26.6-7.1c-8.5-5.2-15.5-12.9-19.3-22.2c0,0,0,0,0,0
			c-2.9-7.5-3.9-16-0.9-23.6c2.8-6.8,9-11.5,16.4-12c7.3-0.5,13.8,4,14.7,11.5c0.8,7.2-3.8,14.5-11.3,15c-4,0.3-8.5-1.6-9.7-5.8
			c-1-3.7,0.6-8.2,4.5-9.4c1.7-0.5,1-3.2-0.7-2.7c-7.8,2.4-9,13.5-2.7,18.2c7.3,5.5,17.9,1.3,21.3-6.6c3.4-7.7,0.8-17.5-7.1-21.3
			c-7.7-3.8-17.7-1.2-23.5,4.9c-0.7,0.8-1.4,1.6-2,2.4c0.2-2,0.3-4,0.3-6c0-23.4-13-43.8-32.3-54.3c0.7,0,1.3,0,1.9-0.2
			c7.3-1.6,11.3-10.2,8.8-16.9c-2.8-7.8-11.2-11.7-19.1-10.4c-9.6,1.5-17.2,9.5-21.3,18.1c-3.5-7.5-9.6-14.3-17.5-17.1
			c-7.9-2.8-17.3-0.5-21.7,7c-3.7,6.4-1.5,15.2,5.3,18.6c1.4,0.7,3,1,4.5,1c-19.3,10.5-32.4,30.9-32.4,54.3c0,1.9,0.1,3.8,0.3,5.7
			c-0.5-0.7-1.1-1.4-1.7-2.1c-5.8-6.1-15.8-8.7-23.5-4.9c-7.8,3.8-10.4,13.6-7.1,21.3c3.4,7.9,14,12.1,21.3,6.6
			c6.3-4.7,5.2-15.8-2.7-18.2c-1.7-0.5-2.4,2.1-0.7,2.7c3.9,1.2,5.5,5.7,4.5,9.4c-1.1,4.2-5.6,6-9.7,5.8c-7.6-0.5-12.2-7.9-11.3-15
			c0.9-7.5,7.4-12,14.7-11.5c7.4,0.5,13.6,5.2,16.4,12c3.1,7.6,2.1,16.2-0.9,23.6c0,0,0,0,0,0c-3.8,9.2-10.8,17-19.3,22.2
			c-7.8,4.8-17.3,7.8-26.6,7.1c-9.1-0.7-18.9-6.4-20.6-16.1c-1.6-9.1,5.6-18.6,15.4-16c7.9,2.1,9.7,13.6,2.1,17.3
			c-1.6,0.8-0.2,3.2,1.4,2.4c9.1-4.5,7.7-18.4-1.4-21.9c-9.7-3.8-19.3,3.6-20.3,13.4c-0.9,7.9,3.4,14.8,9.6,19
			c-2.1,0.6-3.9,2-4.3,4.4c-0.3,2.1,0.7,4.3,2.4,5.4H0v3.4h185.4c-1.3,1.3-2,3.2-1.6,5.5c0.8,4.9,6.9,7.2,11.2,5.1
			c2.3-1.1,3.8-3,4.6-5.3c0.3,0.9,0.8,1.8,1.5,2.7c3.4,4.4,11.2,4.6,13.8-0.9c1.3-2.8,0.5-5.5-1.2-7.2H399V189.6z M311.8,185.4
			c1.3-0.4,2.6-1,4-1.5c0.5-0.2,1-0.3,1.6-0.5c-1.5,1.7-1.4,4.7,0.7,6.2H203.7c2.2-4.1,6.9-7,10.8-8.9c10.8-5.1,23.5-4.5,35-2.2
			c12.2,2.5,24,6.7,36.4,8.4c5.8,0.8,11.7,1,17.5,0.3C306.3,186.8,309.1,186.3,311.8,185.4z M199.2,189.6c-0.1-0.2-0.1-0.3-0.2-0.5
			c-2.5-5.6-8.1-9.5-13.7-12c4.5,1.1,9.2,1.6,14.1,1.6c4.9,0,9.7-0.6,14.3-1.7c-4.1,1.8-7.8,4.2-10.7,7.4c-1.3,1.5-2.4,3.2-3.1,5.1
			H199.2z M259.1,153.1c4.1,9.9,11.4,18.2,20.6,23.8c5.6,3.4,12.1,6,18.8,7.1c-8.5,0.4-17-1.2-25.3-3.3c-16.6-4.1-33.6-10-50.9-6.4
			c15.4-6.1,27.7-18.2,34.1-33.5C256.6,145.1,257.6,149.3,259.1,153.1z M217.5,38.5c7.5-2.7,16.9-0.2,19.9,7.8
			c2.4,6.5-3,16-10.7,13.8c-3.5-1-6.6-4.4-6.4-8.1c0.1-1.9,1.2-4,3-4.9c2.5-1.4,6,0.5,5.2,3.6c-0.4,1.5,1.9,2.1,2.3,0.6
			c0.9-3.3-1.5-6.7-4.9-7.1c-3.5-0.5-6.7,2.4-7.6,5.6c-1.1,3.5,0.1,6.8,2.4,9.3c-6.1-2.2-12.7-3.5-19.5-3.7
			C204.2,48.1,210,41.1,217.5,38.5z M161.4,46.2c2.9-7.9,12.1-10.4,19.5-7.9c7.6,2.6,13.6,9.7,16.8,16.9c-6.8,0.2-13.4,1.5-19.5,3.7
			c1.6-1.7,2.6-3.9,2.7-6.4c0.1-3.8-2.6-8-6.6-8.5c-3.9-0.5-7.4,3.3-6.3,7.1c0.4,1.5,2.8,0.9,2.3-0.6c-0.9-3.1,2.7-5,5.2-3.6
			c1.8,1,2.8,3,2.9,4.9c0.2,3.7-2.8,7-6.1,8.1C164.6,62.5,158.9,52.9,161.4,46.2z M199.4,58.3c32.4,0,58.6,26.3,58.6,58.6
			c0,32.4-26.3,58.7-58.6,58.7c-32.4,0-58.7-26.3-58.7-58.7C140.8,84.6,167,58.3,199.4,58.3z M119.3,176.9
			c9.2-5.6,16.4-13.9,20.6-23.8c1.4-3.7,2.4-7.7,2.7-11.8c6.4,14.9,18.5,26.8,33.5,32.9c-14.5-3-29.6,1.1-43.6,4.8
			c-9,2.4-18,4.7-27.3,5c-1.5,0.1-3.1,0-4.6,0C107.3,183,113.8,180.3,119.3,176.9z M81.8,183.4c0.5,0.1,1,0.3,1.5,0.5
			c1.1,0.4,2.2,0.9,3.4,1.3c2.7,0.9,5.5,1.6,8.4,2c6,0.9,12.1,0.6,18.2-0.2c12.4-1.7,24.2-5.9,36.4-8.4c11.5-2.3,24.1-3,35,2.2
			c3.9,1.8,8.6,4.8,10.8,8.9H80.9C82.8,188.1,83.1,185.2,81.8,183.4z M192.8,200.6c-1.3,0.4-2.9,0.2-4-0.6c-2.8-2-0.7-7.8,2.8-4.6
			c1.7,1.5,4.1-0.8,2.7-2.4h2.3c0,0.2,0.1,0.3,0.1,0.5C196.8,196.2,195.7,199.7,192.8,200.6z M207.4,195.4c3.5-3.2,5.6,2.6,2.8,4.6
			c-1,0.7-2.3,0.9-3.5,0.7c-3.1-0.5-4.5-3.9-4.4-6.7c0-0.3,0.1-0.7,0.1-1h2.2C203.3,194.5,205.8,196.9,207.4,195.4z"/>
		<path class="st1" d="M184.9,27.6c6.5,1.5,12.2,6.6,13.3,13.3c0.1,0.8,0.8,1,1.4,0.8c0.6,0.2,1.2,0,1.4-0.8
			c1-6.7,6.8-11.8,13.3-13.3c1-0.2,1.1-1.4,0.5-2c-6.1-7.3-10.7-15.8-13.8-24.8c-0.2-0.7-0.8-0.9-1.4-0.8c-0.5-0.1-1.1,0.2-1.4,0.8
			c-3.1,9-7.7,17.4-13.8,24.8C183.8,26.3,183.9,27.4,184.9,27.6z M199.5,4.1c3,7.8,7,15.1,12.2,21.7c-5.3,1.8-10.1,5.8-12.2,11
			c-2.1-5.2-6.9-9.2-12.2-11C192.5,19.2,196.5,11.9,199.5,4.1z"/>
		<path class="st1" d="M199.5,167.9c28.1,0,50.9-22.8,50.9-50.9c0-28.1-22.8-50.9-50.9-50.9c-28.1,0-50.9,22.8-50.9,50.9
			C148.6,145.1,171.4,167.9,199.5,167.9z M199.5,69c26.5,0,48,21.5,48,48c0,26.5-21.5,48-48,48c-26.5,0-48-21.5-48-48
			C151.5,90.5,173,69,199.5,69z"/>
	</g>
	<g>
		<path class="st0" d="M39,259.7h-2.8c-0.7-2.6-1.6-3.8-2-4.5c-1.5,1.6-5.2,5.6-12.8,5.6c-10.7,0-20-8.3-20-20.4
			c0-11.2,8.3-20.8,20.5-20.8c7.1,0,10.7,3.3,12.3,4.9c0.6-1.1,1-2.4,1.3-3.7h2.6l0.5,14.6h-2.8c-1.6-7.8-7.3-12.6-13.2-12.6
			c-6.6,0-11.7,5.2-11.7,16.7c0,15.7,8.3,17.7,11.6,17.7c7.6,0,12.5-7.2,13.7-12.7H39V259.7z"/>
		<path class="st0" d="M54.8,251.6c-0.4,1.1-0.8,2.2-0.8,3.1c0,2.7,3.2,2.7,4.6,2.7v2.7H44.8v-2.7c3.1,0,4.7-1.3,7.2-7.8l11.5-30
			h2.8l12.1,31c2,5,2.6,6.8,6.7,6.8v2.7H66.3v-2.7c2.5,0,4.6,0,4.6-1.9c0-0.4-0.1-1-0.4-1.8l-1.9-4.7H55.7L54.8,251.6z M56.9,246.1
			h10.7l-5.5-13.9L56.9,246.1z"/>
		<path class="st0" d="M123.9,260.1H88.5v-2.7c5.3,0,5.8-1.6,5.8-4.7v-25c0-2.9-0.4-4.7-5.8-4.7v-2.7h20v2.7c-5.2,0-5.8,1.5-5.8,4.7
			v22.9c0,4.5,0,6.2,5.5,6.2c4.6,0,12.1,0,13.3-10h2.7L123.9,260.1z"/>
		<path class="st0" d="M128.4,220.4h20.2v2.7c-5.3,0-5.9,1.5-5.9,4.7v25c0,3,0.5,4.7,5.9,4.7v2.7h-20.2v-2.7c5.3,0,5.9-1.5,5.9-4.7
			v-25c0-3.1-0.5-4.7-5.9-4.7V220.4z"/>
		<path class="st0" d="M166.8,252.7c0,2.5,0.1,4.7,5.5,4.7h0.8v2.7h-20.4v-2.7c5.2,0,5.7-1.6,5.7-4.7v-25c0-2.9-0.4-4.7-5.7-4.7
			v-2.7h32.5l0.3,10.3h-2.8c-1.6-7.1-4.6-7.1-8.9-7.1h-7.1v14h3.7c3.4,0,4.4-0.7,4.7-4.9h2.7V246h-2.8c-0.2-4.2-1-5-4.7-5h-3.6
			V252.7z"/>
		<path class="st0" d="M213.2,219.7c17.9,0,22.4,13.4,22.4,20.6c0,10.6-7.6,20.6-22.1,20.6c-15.8,0-22.2-11.3-22.2-20.6
			C191.3,229.9,198.5,219.7,213.2,219.7z M213.5,257.4c12.2,0,12.6-13.1,12.6-17.2c0-8.1-2.4-17-12.7-17c-10.9,0-12.7,9.4-12.7,17
			C200.7,244.5,201.1,257.4,213.5,257.4z"/>
		<path class="st0" d="M255.6,252.7c0,2.9,0.4,4.7,5.8,4.7v2.7h-19.9v-2.7c5.2,0,5.7-1.6,5.7-4.7v-25.1c0-3-0.4-4.7-5.7-4.7v-2.8
			l9.2-0.3c1.5,0,4.6-0.2,8-0.1c3.4,0.1,7.1,0.4,9.6,1c4.1,1.1,8.6,4.2,8.6,10.1c0,3.9-2.3,7.8-8.7,9.5c3.1,1.8,4.4,3.9,8.3,10
			c3.7,5.7,4.9,6.7,7.8,6.9v2.7h-10.6c-1.6-1.8-3.3-4.7-5-7.5l-2.7-4.4c-3.4-5.5-3.6-5.8-8.9-5.8h-1.5V252.7z M255.6,239.1h1.9
			c3.7,0,10.4-0.1,10.4-8.2c0-8-7.4-7.9-12.3-7.8V239.1z"/>
		<path class="st0" d="M295.9,251.5c0,4.1,0.1,5.9,5.9,5.9v2.7h-14.8v-2.7c5.6,0,5.6-1.9,5.6-5.9v-20.3c0-5.3-0.1-7.5-5.5-8.1v-2.7
			h11.6l22.6,26.7V229c0-3.8-0.2-5.9-5.7-5.9v-2.7h14.8v2.7c-5.8,0-5.9,1.6-5.9,5.9v31.5h-2.7l-26-30.9V251.5z"/>
		<path class="st0" d="M334,220.4h20.2v2.7c-5.3,0-5.9,1.5-5.9,4.7v25c0,3,0.5,4.7,5.9,4.7v2.7H334v-2.7c5.3,0,5.9-1.5,5.9-4.7v-25
			c0-3.1-0.5-4.7-5.9-4.7V220.4z"/>
		<path class="st0" d="M367.4,251.6c-0.4,1.1-0.8,2.2-0.8,3.1c0,2.7,3.2,2.7,4.6,2.7v2.7h-13.7v-2.7c3.1,0,4.7-1.3,7.2-7.8l11.5-30
			h2.8l12.1,31c2,5,2.6,6.8,6.7,6.8v2.7h-18.7v-2.7c2.5,0,4.6,0,4.6-1.9c0-0.4-0.1-1-0.4-1.8l-1.9-4.7h-12.9L367.4,251.6z
			 M369.5,246.1h10.7l-5.5-13.9L369.5,246.1z"/>
	</g>
	<g>
		<path class="st0" d="M116.7,286.4h-13v-1c1.9,0,2.1-0.6,2.1-1.7v-9.2c0-1.1-0.1-1.7-2.1-1.7v-1h7.3v1c-1.9,0-2.1,0.6-2.1,1.7v8.4
			c0,1.7,0,2.3,2,2.3c1.7,0,4.4,0,4.9-3.7h1L116.7,286.4z"/>
		<path class="st0" d="M118.2,271.8h7.3v1c-1.9,0-2.1,0.6-2.1,1.7v6.1c0,1.3,0.1,2.2,0.4,2.9c0.5,1.2,1.8,1.9,3.2,1.9
			c1.5,0,2.9-0.8,3.5-2c0.4-1,0.5-2,0.5-3.2V275c0-1.5,0-2.2-2.2-2.2v-1h5.4v1c-2,0-2,0.7-2,2.2v5.4c0,1.7,0,2.6-0.6,3.7
			c-1.3,2.3-3.9,2.6-5.1,2.6c-1.7,0-4.4-0.6-5.4-2.7c-0.6-1.2-0.6-2.1-0.6-3.3l0-6.1c0-1.1-0.2-1.7-2.1-1.7V271.8z"/>
		<path class="st0" d="M141.4,283.1c-0.3,0.4-0.8,1-0.8,1.4c0,0.9,1,0.9,1.9,0.9v1h-6.4v-1c1.3,0,2-0.3,4.2-2.8l2.6-3l-3.5-4.6
			c-1.3-1.7-1.6-2.1-3.3-2.1v-1h7.9v1h-0.5c-0.6,0-1.2,0-1.2,0.6c0,0.3,0.4,0.8,0.7,1.2l2,2.6l2.3-2.7c0.3-0.3,0.5-0.6,0.5-1
			c0-0.4-0.3-0.7-1.3-0.7H146v-1h6v1c-1.7,0-2.4,0.9-3.7,2.4l-2.6,3l3.5,4.6c1.5,2,2,2.6,3.7,2.6v1h-8.5v-1h0.7c0.4,0,1.5,0,1.5-0.8
			c0-0.3-0.4-0.7-0.6-1l-2.4-3.1L141.4,283.1z"/>
		<path class="st0" d="M155,271.8h7.3v1c-1.9,0-2.1,0.6-2.1,1.7v6.1c0,1.3,0.1,2.2,0.4,2.9c0.5,1.2,1.8,1.9,3.2,1.9
			c1.5,0,2.9-0.8,3.5-2c0.4-1,0.5-2,0.5-3.2V275c0-1.5,0-2.2-2.2-2.2v-1h5.4v1c-2,0-2,0.7-2,2.2v5.4c0,1.7,0,2.6-0.6,3.7
			c-1.3,2.3-3.9,2.6-5.1,2.6c-1.7,0-4.4-0.6-5.4-2.7c-0.6-1.2-0.6-2.1-0.6-3.3l0-6.1c0-1.1-0.2-1.7-2.1-1.7V271.8z"/>
		<path class="st0" d="M178.1,283.7c0,1.1,0.2,1.7,2.1,1.7v1h-7.3v-1c1.9,0,2.1-0.6,2.1-1.7v-9.2c0-1.1-0.2-1.7-2.1-1.7v-1l3.4-0.1
			c0.5,0,1.7-0.1,2.9,0c1.3,0,2.6,0.1,3.5,0.4c1.5,0.4,3.2,1.5,3.2,3.7c0,1.4-0.8,2.9-3.2,3.5c1.1,0.7,1.6,1.4,3.1,3.7
			c1.4,2.1,1.8,2.4,2.9,2.5v1h-3.9c-0.6-0.7-1.2-1.7-1.8-2.8l-1-1.6c-1.2-2-1.3-2.1-3.3-2.1h-0.6V283.7z M178.1,278.7h0.7
			c1.4,0,3.8,0,3.8-3c0-2.9-2.7-2.9-4.5-2.9V278.7z"/>
		<path class="st0" d="M190.5,274.3c-0.1-0.1-0.1-0.2-0.2-0.2c-0.7-1.1-1-1.2-1.9-1.3v-1h6.8v1c-0.8,0-1.5,0-1.5,0.6
			c0,0.3,0.1,0.6,0.7,1.6l2.3,3.8l2.2-3.4c0.4-0.7,0.7-1.2,0.7-1.6c0-1-0.9-1-1.7-1v-1h5.3v1c-1.2,0.1-1.5,0.6-2.9,2.7l-3.1,4.7v3.5
			c0,1,0.1,1.7,2.1,1.7v1H192v-1c1.9,0,2.1-0.5,2.1-1.7v-3.3L190.5,274.3z"/>
		<path class="st0" d="M216.9,283.7c0,1,0.1,1.7,2.1,1.7v1h-7.2v-1c1.9,0,2-0.6,2-1.7v-9.2c0-1-0.1-1.7-2-1.7v-1h7.2v1
			c-1.9,0-2.1,0.6-2.1,1.7v3.6h6.8v-3.6c0-1-0.1-1.7-2-1.7v-1h7.2v1c-1.9,0-2,0.7-2,1.7v9.2c0,1,0.1,1.7,2,1.7v1h-7.2v-1
			c1.9,0,2-0.6,2-1.7v-4.4h-6.8V283.7z"/>
		<path class="st0" d="M239.5,271.6c6.6,0,8.2,4.9,8.2,7.5c0,3.9-2.8,7.5-8.1,7.5c-5.8,0-8.1-4.1-8.1-7.6
			C231.4,275.3,234.1,271.6,239.5,271.6z M239.6,285.4c4.5,0,4.6-4.8,4.6-6.3c0-3-0.9-6.2-4.6-6.2c-4,0-4.7,3.5-4.7,6.2
			C234.9,280.7,235.1,285.4,239.6,285.4z"/>
		<path class="st0" d="M254.1,273c-1.3,0-3,0-3.1,2.9h-1v-4.1h14.4v4.1h-1c-0.3-2.9-1.9-2.9-2.8-2.9h-1.8v10.7
			c0,1.1,0.1,1.7,2.1,1.7v1h-7.3v-1c1.9,0,2.1-0.6,2.1-1.7V273H254.1z"/>
		<path class="st0" d="M279.6,286.4h-13v-1c1.9,0,2.1-0.6,2.1-1.7v-9.2c0-1.1-0.1-1.7-2.1-1.7v-1h12.1l0.2,3.8h-1
			c-0.7-2.6-1.6-2.6-3.4-2.6h-2.7v5.1h1.5c1.5,0,1.8-0.3,1.9-1.8h1v4.8h-1c-0.1-1.6-0.5-1.8-1.9-1.8h-1.5v3.4c0,1.9,0,2.4,2.1,2.4
			h1.2c0.9,0,3.1,0,3.6-3.6h1L279.6,286.4z"/>
		<path class="st0" d="M295.2,286.4h-13v-1c1.9,0,2.1-0.6,2.1-1.7v-9.2c0-1.1-0.1-1.7-2.1-1.7v-1h7.3v1c-1.9,0-2.1,0.6-2.1,1.7v8.4
			c0,1.7,0,2.3,2,2.3c1.7,0,4.4,0,4.9-3.7h1L295.2,286.4z"/>
	</g>
	<g>
		<path class="st0" d="M222.2,141h-3.5c-0.8-3.2-2-4.8-2.6-5.7c-1.9,2-6.6,7.1-16.2,7.1c-13.4,0-25.1-10.5-25.1-25.7
			c0-14,10.4-26.1,25.8-26.1c9,0,13.5,4.2,15.5,6.1c0.8-1.4,1.2-3,1.6-4.6h3.3l0.6,18.4h-3.5c-2-9.8-9.1-15.9-16.6-15.9
			c-8.3,0-14.7,6.6-14.7,21.1c0,19.8,10.4,22.3,14.7,22.3c9.6,0,15.8-9.1,17.2-15.9h3.5V141z"/>
	</g>
</g>
</svg>
